<?xml version="1.0" encoding="UTF-8" standalone="no"?>
<svg
   width="24"
   height="24"
   viewBox="0 0 24 24"
   fill="none"
   stroke="currentColor"
   stroke-width="2"
   stroke-linecap="round"
   stroke-linejoin="round"
   class="feather feather-globe"
   version="1.1"
   id="svg1"
   sodipodi:docname="globe.svg"
   inkscape:version="1.4 (e7c3feb100, 2024-10-09)"
   xmlns:inkscape="http://www.inkscape.org/namespaces/inkscape"
   xmlns:sodipodi="http://sodipodi.sourceforge.net/DTD/sodipodi-0.dtd"
   xmlns="http://www.w3.org/2000/svg"
   xmlns:svg="http://www.w3.org/2000/svg">
  <defs
     id="defs1" />
  <sodipodi:namedview
     id="namedview1"
     pagecolor="#505050"
     bordercolor="#eeeeee"
     borderopacity="1"
     inkscape:showpageshadow="0"
     inkscape:pageopacity="0"
     inkscape:pagecheckerboard="0"
     inkscape:deskcolor="#505050"
     inkscape:zoom="48.333333"
     inkscape:cx="11.989655"
     inkscape:cy="12"
     inkscape:window-width="2560"
     inkscape:window-height="1371"
     inkscape:window-x="0"
     inkscape:window-y="0"
     inkscape:window-maximized="1"
     inkscape:current-layer="svg1" />
  <circle
     cx="12"
     cy="12"
     r="10"
     id="circle1" />
  <line
     x1="2"
     y1="12"
     x2="22"
     y2="12"
     id="line1" />
  <path
     d="M12 2a15.3 15.3 0 0 1 4 10 15.3 15.3 0 0 1-4 10 15.3 15.3 0 0 1-4-10 15.3 15.3 0 0 1 4-10z"
     id="path1" />
  <path
     style="fill:#f2f2f2;stroke:#ffffff;stroke-width:0.0413793"
     d="M 11.224138,22.963243 C 6.7742808,22.62827 2.9967879,19.698959 1.5821264,15.486207 0.91049655,13.486145 0.83106432,11.317473 1.354834,9.2806326 2.3813046,5.2888841 5.5349789,2.2124336 9.5451826,1.2908404 10.800876,1.002267 12.074839,0.93814014 13.365517,1.0985382 c 2.141513,0.2661347 4.19037,1.1788694 5.824138,2.5945648 1.832723,1.5880935 3.099764,3.7555602 3.577279,6.1194795 0.160998,0.7970165 0.208928,1.2988255 0.208928,2.1874175 0,0.888592 -0.04793,1.390401 -0.208928,2.187418 -0.621906,3.078728 -2.552298,5.75507 -5.29452,7.340458 -0.113793,0.06579 -0.369828,0.201207 -0.568966,0.300931 -1.296568,0.649291 -2.68752,1.028363 -4.168965,1.136156 -0.334094,0.02431 -1.17732,0.02335 -1.510345,-0.0017 z M 9.7241379,20.698824 c 0,-0.0063 -0.063793,-0.111078 -0.1417624,-0.232759 C 8.2961617,18.458771 7.4643989,16.185999 7.1503781,13.82069 7.1224297,13.610172 7.0936736,13.363448 7.0864757,13.272414 7.0792779,13.181379 7.0685503,13.081293 7.0626366,13.05 L 7.0518846,12.9931 H 5.0463875 3.0408903 l 0.012382,0.08793 c 0.1381662,0.981212 0.3444259,1.729517 0.7057223,2.560345 0.6571583,1.511185 1.8023973,2.880539 3.1971416,3.822801 0.7561552,0.510843 1.5418227,0.884989 2.4266226,1.15559 0.2899575,0.08868 0.3413793,0.100587 0.3413793,0.07905 z m 4.9797571,-0.104868 c 1.027533,-0.317825 2.063812,-0.871396 2.946728,-1.574116 0.358823,-0.285589 1.083628,-1.010394 1.369217,-1.369217 0.75861,-0.953138 1.314658,-2.026862 1.635182,-3.15752 0.139311,-0.491421 0.210792,-0.837441 0.291706,-1.412069 l 0.01238,-0.08793 h -2.006204 -2.006203 l -0.01041,0.06724 c -0.0057,0.03698 -0.02043,0.17431 -0.03269,0.305172 -0.0294,0.314053 -0.109392,0.866923 -0.184426,1.2747 -0.379742,2.063755 -1.16568,4.053173 -2.301558,5.825848 -0.07797,0.121681 -0.141762,0.227162 -0.141762,0.234403 0,0.01967 0.102781,-0.0059 0.428033,-0.106512 z m -2.514685,-0.37575 c 0.748493,-1.014128 1.385445,-2.162706 1.832483,-3.304413 0.438525,-1.119964 0.756582,-2.380898 0.884578,-3.506896 0.01746,-0.153621 0.0358,-0.309569 0.04075,-0.346552 l 0.009,-0.06724 H 11.998305 9.040591 l 0.00968,0.04655 c 0.00532,0.0256 0.015352,0.111724 0.022284,0.191379 0.022673,0.260548 0.1147614,0.861633 0.188598,1.231035 0.4242017,2.122268 1.288148,4.059533 2.59465,5.818096 0.07362,0.09909 0.138506,0.180215 0.144196,0.180275 0.0057,6e-5 0.09083,-0.108945 0.189211,-0.242234 z M 7.0626366,10.95 c 0.00591,-0.03129 0.016641,-0.131379 0.023839,-0.222414 0.0072,-0.09103 0.035954,-0.337758 0.063902,-0.548276 C 7.4644326,7.8137479 8.2967127,5.540291 9.5841854,3.5311202 9.6631502,3.4078914 9.7228885,3.3021987 9.7169371,3.2962475 9.7001746,3.2794848 9.2071088,3.4277472 8.8965517,3.5429332 7.8328128,3.9374754 6.9231732,4.4760192 6.0724138,5.2149391 5.764873,5.4820508 5.232708,6.0352353 4.9826336,6.3477633 4.489817,6.9636559 4.0545809,7.6788974 3.7589944,8.3586207 3.3960031,9.1933461 3.1920865,9.933151 3.0532721,10.918966 l -0.012382,0.08793 H 5.0463873 7.0518844 Z M 14.94702,10.93966 C 14.94202,10.90268 14.92374,10.746729 14.90628,10.593108 14.681106,8.6113272 13.945085,6.5110906 12.872486,4.7896552 12.589996,4.3362815 12.033562,3.5388677 12,3.5393133 11.98566,3.5395039 11.664855,3.9767309 11.477285,4.2517241 10.389674,5.8462512 9.6348205,7.6478402 9.2590486,9.5459299 9.1866753,9.9114997 9.094663,10.514924 9.0725557,10.768966 c -0.00693,0.07965 -0.01696,0.165775 -0.022284,0.191379 l -0.00968,0.04655 h 2.9577143 2.957714 z m 5.999708,-0.02069 C 20.865814,10.344338 20.794333,9.9983181 20.655022,9.5068966 20.334431,8.376 19.777659,7.3009926 19.019668,6.3493767 18.753786,6.0155768 18.038588,5.2933812 17.712719,5.0296394 16.9149,4.3839265 16.07322,3.9039834 15.103448,3.5417799 14.803806,3.4298652 14.301049,3.2782614 14.284485,3.2948253 c -0.0055,0.00554 0.08002,0.1532861 0.19015,0.3283167 1.162565,1.8477414 1.931176,3.8624789 2.292552,6.0093993 0.0609,0.3618207 0.12748,0.8604517 0.146209,1.0950447 0.0073,0.09103 0.01805,0.191121 0.02397,0.222414 l 0.01075,0.0569 h 2.005497 2.005498 z"
     id="path2" />
</svg>
