<?xml version="1.0" encoding="UTF-8" standalone="no"?>
<svg
   width="24"
   height="24"
   viewBox="0 0 24 24"
   fill="none"
   stroke="currentColor"
   stroke-width="2"
   stroke-linecap="round"
   stroke-linejoin="round"
   class="feather feather-map-pin"
   version="1.1"
   id="svg1"
   sodipodi:docname="map-pin.svg"
   inkscape:version="1.4 (e7c3feb100, 2024-10-09)"
   xmlns:inkscape="http://www.inkscape.org/namespaces/inkscape"
   xmlns:sodipodi="http://sodipodi.sourceforge.net/DTD/sodipodi-0.dtd"
   xmlns="http://www.w3.org/2000/svg"
   xmlns:svg="http://www.w3.org/2000/svg">
  <defs
     id="defs1" />
  <sodipodi:namedview
     id="namedview1"
     pagecolor="#505050"
     bordercolor="#eeeeee"
     borderopacity="1"
     inkscape:showpageshadow="0"
     inkscape:pageopacity="0"
     inkscape:pagecheckerboard="0"
     inkscape:deskcolor="#505050"
     inkscape:zoom="49.666667"
     inkscape:cx="11.989933"
     inkscape:cy="12"
     inkscape:window-width="2560"
     inkscape:window-height="1403"
     inkscape:window-x="0"
     inkscape:window-y="0"
     inkscape:window-maximized="1"
     inkscape:current-layer="svg1" />
  <path
     d="M21 10c0 7-9 13-9 13s-9-6-9-13a9 9 0 0 1 18 0z"
     id="path1" />
  <circle
     cx="12"
     cy="10"
     r="3"
     id="circle1" />
  <path
     style="fill:#f2f2f2;stroke:#ffffff;stroke-width:0.0402685"
     d="M 11.862204,23.97753 C 11.685145,23.955666 11.515044,23.870277 11.195986,23.643091 9.4010481,22.365 7.5533472,20.704627 6.1373462,19.097315 3.4144445,16.006534 2.0138481,12.916944 2.0134717,10.000417 2.013219,8.0424405 2.5792128,6.1542977 3.6592708,4.5100671 4.051507,3.9129447 4.391543,3.498686 4.9416513,2.9477692 5.7674352,2.1207717 6.5788909,1.5377744 7.6006711,1.0373734 9.0071209,0.34858657 10.423693,0.01991243 11.991016,0.0187222 c 1.557651,-0.0011829 2.966821,0.32056163 4.368044,0.997321 1.578203,0.762236 2.961155,1.9653906 3.935166,3.4235541 0.93637,1.4018104 1.475431,2.9157483 1.656065,4.6510067 0.03948,0.3792194 0.03282,1.520904 -0.01103,1.892617 -0.216772,1.837545 -0.878295,3.59283 -2.050794,5.441577 -1.478455,2.331165 -3.832809,4.786601 -6.537798,6.818493 -0.741246,0.556796 -0.975372,0.702435 -1.168092,0.726608 -0.05059,0.0063 -0.114628,0.01421 -0.142313,0.01747 -0.02768,0.0033 -0.107813,-0.0012 -0.178064,-0.0098 z m 0.385877,-2.377027 c 1.549057,-1.167018 3.148601,-2.660498 4.341395,-4.053523 2.026573,-2.36677 3.154881,-4.643621 3.387412,-6.835571 0.03598,-0.339154 0.03005,-1.1735438 -0.01099,-1.5464064 C 19.666871,6.4481386 18.066483,4.1138448 15.654362,2.8762828 14.558237,2.313905 13.445723,2.0314188 12.201342,1.999502 10.019174,1.9435322 7.9396927,2.7616452 6.3941086,4.2841935 5.1922967,5.4680936 4.4220479,6.9223323 4.1186237,8.5803362 3.8634119,9.9748919 3.9935146,11.374603 4.5132107,12.825503 5.404827,15.31474 7.4603146,17.996097 10.409396,20.517 c 0.413317,0.353307 1.549335,1.260308 1.587007,1.267073 0.0036,6.38e-4 0.116814,-0.08197 0.251678,-0.18357 z"
     id="path2" />
  <path
     style="fill:#f2f2f2;stroke:#ffffff;stroke-width:0.0402685"
     d="M 11.617558,13.971346 C 10.842476,13.896773 10.055339,13.566825 9.4530201,13.064026 8.3000663,12.101571 7.7841135,10.597932 8.1071182,9.1416685 8.4678703,7.5152209 9.7857022,6.2946551 11.444323,6.0507751 c 0.288678,-0.042447 0.822676,-0.042447 1.111354,0 1.294665,0.1903648 2.388372,0.9684029 2.985368,2.1237215 0.702229,1.358969 0.56895,2.9786154 -0.346277,4.2080534 -0.827568,1.111685 -2.200109,1.721291 -3.57721,1.588796 z m 0.778702,-2.002939 c 0.371405,-0.07672 0.702659,-0.247625 0.968628,-0.499761 0.294571,-0.27925 0.48053,-0.589711 0.581056,-0.970083 0.04579,-0.173249 0.05283,-0.240178 0.05283,-0.5019187 0,-0.2594438 -0.0072,-0.3293136 -0.05125,-0.4956966 C 13.71081,8.606431 12.918782,7.9932886 12,7.9932886 c -0.936303,0 -1.730338,0.6286909 -1.95807,1.5503356 -0.060321,0.2441255 -0.059672,0.6643548 0.0014,0.9122208 0.09617,0.390261 0.284049,0.716518 0.571554,0.992534 0.27592,0.264894 0.603209,0.438904 0.975917,0.518865 0.188151,0.04037 0.612686,0.04098 0.805449,0.0012 z"
     id="path3" />
</svg>
